<svg xmlns="http://www.w3.org/2000/svg" xmlns:xlink="http://www.w3.org/1999/xlink" width="500" zoomAndPan="magnify" viewBox="0 0 375 374.999991" height="500" preserveAspectRatio="xMidYMid meet" version="1.0"><path fill="#9cc820" d="M 215.699219 378.460938 C 165.699219 325.429688 171.621094 164.09375 171.898438 157.25 L 185.207031 157.789062 C 185.144531 159.410156 179.21875 320.355469 225.394531 369.328125 Z M 215.699219 378.460938 " fill-opacity="1" fill-rule="nonzero"/><path fill="#ffc226" d="M 220.546875 52.265625 C 220.546875 78.363281 201.75 113.804688 178.554688 113.804688 C 155.371094 113.804688 136.574219 78.363281 136.574219 52.265625 C 136.574219 26.167969 155.371094 5.007812 178.554688 5.007812 C 201.75 5.007812 220.546875 26.164062 220.546875 52.265625 Z M 220.546875 52.265625 " fill-opacity="1" fill-rule="nonzero"/><path fill="#ffc226" d="M 100.328125 137.863281 C 115.433594 116.574219 151.273438 98.527344 170.199219 111.941406 C 189.101562 125.339844 183.9375 165.125 168.832031 186.414062 C 153.730469 207.710938 126.152344 214.09375 107.25 200.691406 C 88.320312 187.285156 85.226562 159.15625 100.328125 137.863281 Z M 100.328125 137.863281 " fill-opacity="1" fill-rule="nonzero"/><path fill="#ffc226" d="M 256.789062 137.863281 C 241.6875 116.574219 205.847656 98.527344 186.917969 111.941406 C 168.015625 125.339844 173.179688 165.125 188.285156 186.414062 C 203.386719 207.710938 230.96875 214.09375 249.867188 200.691406 C 268.796875 187.285156 271.890625 159.15625 256.789062 137.863281 Z M 256.789062 137.863281 " fill-opacity="1" fill-rule="nonzero"/><path fill="#ffc226" d="M 119.609375 55.09375 C 144.820312 61.875 174.167969 89.226562 168.144531 111.621094 C 162.121094 133.996094 123.003906 142.929688 97.792969 136.148438 C 72.566406 129.367188 57.023438 105.722656 63.046875 83.351562 C 69.070312 60.957031 94.398438 48.308594 119.609375 55.09375 Z M 119.609375 55.09375 " fill-opacity="1" fill-rule="nonzero"/><path fill="#ffc226" d="M 239.707031 55.09375 C 214.496094 61.875 185.148438 89.226562 191.171875 111.621094 C 197.195312 133.996094 236.3125 142.929688 261.523438 136.148438 C 286.746094 129.367188 302.292969 105.722656 296.269531 83.351562 C 290.246094 60.957031 264.917969 48.308594 239.707031 55.09375 Z M 239.707031 55.09375 " fill-opacity="1" fill-rule="nonzero"/><path fill="#ffffb8" d="M 207.746094 113.804688 C 207.746094 127.804688 196.386719 139.152344 182.390625 139.152344 C 168.390625 139.152344 157.035156 127.804688 157.035156 113.804688 C 157.035156 99.804688 168.390625 88.460938 182.390625 88.460938 C 196.386719 88.460938 207.746094 99.804688 207.746094 113.804688 Z M 207.746094 113.804688 " fill-opacity="1" fill-rule="nonzero"/></svg>